<svg width="24" height="24" viewBox="0 0 24 24" fill="none" xmlns="http://www.w3.org/2000/svg">
<path d="M10.694 15.2065C10.5961 15.0956 10.4694 15.016 10.3289 14.9772C10.1885 14.9384 10.0401 14.942 9.90159 14.9877L8.54503 15.4331C8.47082 15.4576 8.39247 15.4658 8.315 15.4572C8.23753 15.4487 8.16266 15.4235 8.0952 15.3833C8.02774 15.343 7.96918 15.2887 7.92328 15.2238C7.87739 15.1589 7.84517 15.0848 7.8287 15.0063L7.52435 13.5723C7.49304 13.4259 7.42173 13.2917 7.31883 13.1857C7.21593 13.0797 7.08576 13.0063 6.94368 12.9741L6.87961 12.9597L2 20.33L5.97457 20.0564L7.08084 24L12.0661 16.4799C11.9882 16.4804 11.9112 16.4639 11.84 16.4314C11.7688 16.3989 11.7051 16.3512 11.6531 16.2915L10.694 15.2065Z" fill="#A78BFA"/>
<path d="M10.694 15.2065C10.6228 15.1255 10.5361 15.0608 10.4393 15.0163C10.3425 14.9719 10.2378 14.9488 10.1318 14.9484C10.0536 14.9484 9.97595 14.9609 9.90154 14.9856L8.54498 15.431C8.47074 15.4555 8.39236 15.4637 8.31486 15.4552C8.23736 15.4466 8.16245 15.4214 8.09495 15.3812C8.02745 15.341 7.96885 15.2867 7.9229 15.2218C7.87696 15.1568 7.84469 15.0827 7.82816 15.0042L7.67798 14.2929L3.65686 20.2159L5.97402 20.0564L6.61927 22.3554L11.135 15.7056L10.694 15.2065ZM13.305 15.2065C13.4028 15.0956 13.5295 15.016 13.67 14.9772C13.8105 14.9384 13.9588 14.942 14.0974 14.9876L15.4539 15.4331C15.5281 15.4576 15.6065 15.4658 15.684 15.4572C15.7614 15.4486 15.8363 15.4234 15.9038 15.3832C15.9712 15.343 16.0298 15.2887 16.0757 15.2238C16.1216 15.1589 16.1538 15.0848 16.1702 15.0062L16.4746 13.5723C16.5059 13.4259 16.5773 13.2918 16.6802 13.1859C16.7831 13.08 16.9132 13.0067 17.0553 12.9746L17.1193 12.9601L22 20.33L18.0254 20.0564L16.9191 23.9999L11.9329 16.4799C12.0107 16.4804 12.0878 16.4638 12.159 16.4313C12.2301 16.3989 12.2938 16.3512 12.3459 16.2915L13.305 15.2065Z" fill="#A78BFA"/>
<path d="M13.305 15.2065C13.4029 15.0956 13.5296 15.016 13.6701 14.9772C13.8106 14.9384 13.9589 14.942 14.0974 14.9877L15.454 15.4331C15.5282 15.4576 15.6066 15.4658 15.684 15.4572C15.7615 15.4487 15.8364 15.4235 15.9038 15.3833C15.9713 15.3431 16.0298 15.2887 16.0757 15.2238C16.1216 15.1589 16.1538 15.0848 16.1703 15.0063L16.3205 14.295L20.3411 20.2159L18.0234 20.0564L17.3787 22.3554L12.864 15.7057L13.305 15.2065Z" fill="#A78BFA"/>
<path d="M13.9707 15.842L15.2722 16.2694C15.4593 16.3309 15.6567 16.3514 15.8519 16.3297C16.0472 16.308 16.2358 16.2444 16.4058 16.1432C16.5758 16.0419 16.7235 15.9051 16.8393 15.7417C16.9551 15.5782 17.0365 15.3915 17.0783 15.1937L17.3696 13.8187L17.646 13.7567L17.1188 12.9603L17.0548 12.9747C16.9129 13.007 16.783 13.0804 16.6803 13.1863C16.5776 13.2922 16.5064 13.4262 16.4751 13.5724L16.1708 15.0064C16.1543 15.0849 16.1221 15.159 16.0762 15.2239C16.0303 15.2888 15.9717 15.3431 15.9043 15.3833C15.8368 15.4235 15.7619 15.4488 15.6845 15.4573C15.607 15.4659 15.5286 15.4577 15.4544 15.4332L14.0979 14.9878C13.9593 14.9421 13.811 14.9385 13.6705 14.9773C13.53 15.0161 13.4033 15.0957 13.3055 15.2066L12.3464 16.2906C12.3053 16.3449 12.2527 16.3889 12.1926 16.4192C12.1325 16.4494 12.0666 16.4652 11.9997 16.4652C11.9329 16.4652 11.8669 16.4494 11.8068 16.4192C11.7467 16.3889 11.6942 16.3449 11.6531 16.2906L10.6945 15.2066C10.6233 15.1257 10.5366 15.0609 10.4398 15.0165C10.343 14.972 10.2383 14.9489 10.1323 14.9485C10.0541 14.9485 9.97646 14.961 9.90205 14.9857L8.54549 15.4312C8.47125 15.4557 8.39286 15.4639 8.31536 15.4553C8.23786 15.4467 8.16296 15.4215 8.09546 15.3813C8.02796 15.3411 7.96936 15.2868 7.92341 15.2219C7.87746 15.157 7.84519 15.0828 7.82866 15.0043L7.52481 13.5704C7.49304 13.4243 7.42146 13.2906 7.3185 13.1851C7.21554 13.0796 7.08549 13.0066 6.94364 12.9747L6.88007 12.9603L6.35547 13.7541L6.6478 13.8197L6.93914 15.1948C6.98106 15.3925 7.06257 15.5791 7.17846 15.7425C7.29434 15.9059 7.44204 16.0426 7.6121 16.1438C7.78216 16.2449 7.97084 16.3084 8.16605 16.33C8.36125 16.3516 8.55869 16.331 8.74572 16.2694L10.0437 15.8384L10.9663 16.8826C11.1248 17.0587 11.3233 17.1914 11.5439 17.2687L11.9995 16.5807L12.459 17.2734C12.6853 17.197 12.8891 17.0625 13.0512 16.8826L13.9707 15.842Z" fill="#7C3AED"/>
<path d="M10.6941 15.2065C10.6229 15.1256 10.5362 15.0608 10.4394 15.0164C10.3426 14.9719 10.2379 14.9488 10.1319 14.9484C10.0538 14.9484 9.97608 14.9609 9.90166 14.9856L8.5451 15.4311C8.47087 15.4556 8.39248 15.4638 8.31498 15.4552C8.23748 15.4466 8.16257 15.4214 8.09508 15.3812C8.02758 15.341 7.96897 15.2867 7.92303 15.2218C7.87708 15.1568 7.84481 15.0827 7.82828 15.0042L7.67811 14.2929L3.65698 20.2159L5.97415 20.0564L6.61939 22.3554L11.1351 15.7057L10.6941 15.2065ZM16.3215 14.295L16.1714 15.0063C16.1549 15.0848 16.1227 15.1589 16.0768 15.2238C16.0309 15.2887 15.9723 15.343 15.9049 15.3832C15.8374 15.4234 15.7625 15.4486 15.6851 15.4572C15.6076 15.4658 15.5293 15.4576 15.4551 15.4331L14.0985 14.9877C13.96 14.942 13.8116 14.9384 13.6711 14.9772C13.5306 15.016 13.4039 15.0956 13.3061 15.2065L12.8651 15.7057L17.3808 22.3554L18.0255 20.0564L20.3432 20.2159L16.3215 14.295Z" fill="#8B5CF6"/>
<path d="M11.1351 15.7057L10.6941 15.2065C10.6229 15.1256 10.5362 15.0608 10.4394 15.0164C10.3426 14.9719 10.2379 14.9488 10.1319 14.9484C10.0538 14.9484 9.97607 14.9609 9.90166 14.9856L8.5451 15.4311C8.47086 15.4555 8.39247 15.4638 8.31497 15.4552C8.23747 15.4466 8.16257 15.4214 8.09507 15.3812C8.02757 15.341 7.96897 15.2867 7.92302 15.2218C7.87708 15.1568 7.8448 15.0827 7.82827 15.0042L7.6781 14.2929L6.97729 15.3252C7.09074 15.692 7.34066 15.9974 7.67222 16.1744C8.00378 16.3514 8.38989 16.3855 8.74583 16.2693L10.0438 15.8383L10.61 16.4794L11.1356 15.7051L11.1351 15.7057ZM15.2718 16.2693C15.6244 16.3851 16.007 16.3534 16.3372 16.1809C16.6673 16.0085 16.9184 15.7091 17.0364 15.3474L16.3215 14.295L16.1714 15.0063C16.1549 15.0848 16.1227 15.1589 16.0768 15.2238C16.0309 15.2887 15.9723 15.343 15.9049 15.3832C15.8374 15.4234 15.7625 15.4486 15.6851 15.4572C15.6076 15.4658 15.5293 15.4576 15.455 15.4331L14.0985 14.9877C13.96 14.942 13.8116 14.9384 13.6711 14.9772C13.5306 15.016 13.4039 15.0956 13.3061 15.2065L12.8651 15.7057L13.3972 16.4897L13.9708 15.8409L15.2718 16.2693Z" fill="#A78BFA"/>
<path d="M17.1519 3.50662L18.543 3.81993C18.6326 3.84024 18.7172 3.87961 18.7913 3.93551C18.8654 3.99142 18.9273 4.06265 18.9732 4.14464C19.0191 4.22663 19.0479 4.31759 19.0578 4.4117C19.0676 4.50581 19.0584 4.60101 19.0305 4.69122L18.5985 6.09003C18.5602 6.21403 18.5572 6.34676 18.5899 6.47247C18.6225 6.59817 18.6895 6.71158 18.7827 6.79925L19.834 7.78771C19.9019 7.85146 19.9561 7.92914 19.9932 8.01575C20.0303 8.10237 20.0495 8.19602 20.0495 8.29071C20.0495 8.38541 20.0303 8.47906 19.9932 8.56567C19.9561 8.65229 19.9019 8.72996 19.834 8.79372L18.7827 9.78269C18.6894 9.87032 18.6225 9.98373 18.5898 10.1095C18.5571 10.2352 18.5602 10.3679 18.5985 10.4919L19.0305 11.8907C19.0583 11.9809 19.0676 12.0761 19.0577 12.1701C19.0479 12.2642 19.0191 12.3551 18.9732 12.4371C18.9273 12.519 18.8653 12.5902 18.7913 12.6461C18.7172 12.7019 18.6326 12.7412 18.543 12.7615L17.1519 13.0753C17.0286 13.1031 16.9156 13.1668 16.8263 13.2589C16.737 13.3509 16.6753 13.4674 16.6483 13.5946L16.3439 15.0285C16.3244 15.121 16.2864 15.2083 16.2323 15.2848C16.1781 15.3613 16.1091 15.4253 16.0296 15.4727C15.9501 15.52 15.8619 15.5498 15.7706 15.5599C15.6793 15.5701 15.587 15.5605 15.4995 15.5318L14.1429 15.0863C14.0227 15.0466 13.8939 15.0434 13.772 15.0771C13.65 15.1108 13.54 15.1799 13.4551 15.2763L12.496 16.3602C12.4342 16.4302 12.3589 16.4861 12.275 16.5244C12.191 16.5627 12.1002 16.5824 12.0085 16.5824C11.9167 16.5824 11.8259 16.5627 11.7419 16.5244C11.658 16.4861 11.5827 16.4302 11.5209 16.3602L10.5618 15.2763C10.4769 15.1799 10.3669 15.1108 10.245 15.0771C10.123 15.0434 9.99424 15.0466 9.874 15.0863L8.51744 15.5318C8.42996 15.5605 8.33761 15.5701 8.24631 15.5599C8.15502 15.5498 8.0668 15.52 7.9873 15.4727C7.90779 15.4253 7.83877 15.3613 7.78464 15.2848C7.73051 15.2083 7.69248 15.121 7.67297 15.0285L7.36862 13.5946C7.34165 13.4674 7.27987 13.3509 7.19061 13.2589C7.10135 13.1668 6.98836 13.1031 6.86504 13.0753L5.47394 12.7615C5.3843 12.7412 5.29973 12.7019 5.22566 12.6461C5.15158 12.5902 5.08962 12.519 5.04373 12.4371C4.99785 12.3551 4.96905 12.2642 4.95917 12.1701C4.9493 12.0761 4.95856 11.9809 4.98638 11.8907L5.41838 10.4919C5.45673 10.3679 5.45977 10.2352 5.42711 10.1095C5.39446 9.98373 5.32749 9.87032 5.23417 9.78269L4.18296 8.79372C4.11506 8.72996 4.06081 8.65229 4.0237 8.56567C3.98658 8.47906 3.96741 8.38541 3.96741 8.29071C3.96741 8.19602 3.98658 8.10237 4.0237 8.01575C4.06081 7.92914 4.11506 7.85146 4.18296 7.78771L5.23417 6.79925C5.32744 6.71158 5.39437 6.59817 5.42702 6.47247C5.45967 6.34676 5.45667 6.21403 5.41838 6.09003L4.98638 4.69122C4.95856 4.60101 4.94929 4.50581 4.95916 4.4117C4.96903 4.31759 4.99783 4.22663 5.04371 4.14464C5.08959 4.06265 5.15155 3.99142 5.22563 3.93551C5.29971 3.87961 5.38428 3.84024 5.47394 3.81993L6.86504 3.50662C6.98836 3.47881 7.10135 3.41511 7.19061 3.32307C7.27987 3.23103 7.34165 3.11451 7.36862 2.98735L7.67297 1.55293C7.69253 1.46045 7.73061 1.3732 7.78477 1.29678C7.83892 1.22035 7.90795 1.15643 7.98745 1.1091C8.06694 1.06177 8.15515 1.03209 8.24641 1.02194C8.33768 1.01179 8.42999 1.02141 8.51744 1.05018L9.874 1.49563C9.99426 1.53505 10.123 1.53811 10.2449 1.50445C10.3668 1.47079 10.4767 1.40181 10.5618 1.30568L11.5209 0.22173C11.5828 0.151869 11.6581 0.0960709 11.742 0.0578941C11.826 0.0197172 11.9167 0 12.0085 0C12.1002 0 12.1909 0.0197172 12.2749 0.0578941C12.3588 0.0960709 12.4341 0.151869 12.496 0.22173L13.4551 1.30568C13.5402 1.40181 13.6502 1.47079 13.7721 1.50445C13.894 1.53811 14.0226 1.53505 14.1429 1.49563L15.4995 1.05018C15.5869 1.02141 15.6792 1.01179 15.7705 1.02194C15.8618 1.03209 15.95 1.06177 16.0295 1.1091C16.109 1.15643 16.178 1.22035 16.2321 1.29678C16.2863 1.3732 16.3244 1.46045 16.3439 1.55293L16.6483 2.98735C16.6753 3.11451 16.737 3.23103 16.8263 3.32307C16.9156 3.41511 17.0286 3.47881 17.1519 3.50662Z" fill="#6D28D9"/>
<path d="M17.2196 8.29303C17.2185 9.28871 16.9492 10.2645 16.4416 11.1115C15.934 11.9585 15.2082 12.6435 14.3451 13.0899C13.482 13.5364 12.5155 13.7267 11.5536 13.6398C10.5917 13.5529 9.67212 13.192 8.89749 12.5976C8.12286 12.0031 7.52365 11.1984 7.16671 10.2733C6.80977 9.34812 6.70914 8.33889 6.87605 7.3582C7.04296 6.37751 7.47085 5.46392 8.11197 4.71938C8.75309 3.97484 9.58223 3.42862 10.5069 3.14168C10.9938 2.98978 11.4999 2.91324 12.0086 2.91457C12.6933 2.91464 13.3713 3.05384 14.0038 3.32422C14.6364 3.5946 15.211 3.99086 15.695 4.49035C16.1789 4.98984 16.5626 5.58277 16.8242 6.23525C17.0858 6.88774 17.2202 7.58698 17.2196 8.29303Z" fill="#A78BFA"/>
<path d="M17.2195 8.29303C17.22 9.20318 16.996 10.0985 16.5687 10.8949C16.1414 11.6913 15.5247 12.3625 14.7767 12.8456C14.2898 12.9975 13.7837 13.0741 13.2749 13.0727C12.1431 13.0734 11.0418 12.6942 10.1375 11.9924C9.23315 11.2906 8.57493 10.3043 8.26227 9.18263C7.94962 8.06095 7.99952 6.86482 8.40445 5.77498C8.80937 4.68513 9.54732 3.76081 10.5068 3.14168C10.9937 2.98978 11.4998 2.91324 12.0085 2.91457C12.6932 2.91464 13.3712 3.05384 14.0037 3.32422C14.6363 3.5946 15.2109 3.99086 15.6948 4.49035C16.1788 4.98984 16.5625 5.58277 16.8241 6.23525C17.0857 6.88774 17.2201 7.58698 17.2195 8.29303Z" fill="#8B5CF6"/>
<path d="M12.3879 11.6083C12.2884 11.6083 12.1929 11.5675 12.1225 11.4949C12.0521 11.4223 12.0125 11.3239 12.0125 11.2212V6.42084L11.0444 7.1027C11.0037 7.13252 10.9577 7.15368 10.9089 7.16494C10.8602 7.1762 10.8098 7.17732 10.7607 7.16825C10.7116 7.15918 10.6647 7.1401 10.6228 7.11212C10.5809 7.08414 10.5448 7.04783 10.5167 7.00531C10.4886 6.96278 10.4689 6.9149 10.459 6.86446C10.449 6.81403 10.4489 6.76205 10.4586 6.71157C10.4684 6.66108 10.4878 6.61312 10.5158 6.57046C10.5437 6.52781 10.5796 6.49134 10.6214 6.46317L12.1762 5.36786C12.2326 5.32812 12.2985 5.30501 12.3667 5.30103C12.435 5.29705 12.5029 5.31235 12.5634 5.34528C12.6238 5.37821 12.6743 5.42752 12.7096 5.4879C12.7448 5.54827 12.7634 5.61742 12.7634 5.68789V11.2212C12.7634 11.3239 12.7238 11.4223 12.6534 11.4949C12.583 11.5675 12.4875 11.6083 12.3879 11.6083Z" fill="#F5F3FF"/>
</svg>
