<svg width="24" height="24" viewBox="0 0 24 24" fill="none" xmlns="http://www.w3.org/2000/svg">
<path d="M11.953 3.31785V3.38151H6.92078V3.31785L7.25546 2H11.6183L11.953 3.31785Z" fill="#EDE9FE"/>
<path d="M2 3.31781H16.8742V22H2V3.31781Z" fill="#4C1D95"/>
<path d="M3.34399 4.62366H15.5283V20.6968H3.34399V4.62366Z" fill="#C4B5FD"/>
<path d="M15.5283 4.62366V19.7118H7.02238C6.74673 19.7118 6.47378 19.6592 6.21913 19.5569C5.96448 19.4547 5.73312 19.3048 5.53827 19.1159C5.34342 18.927 5.18889 18.7027 5.08353 18.4559C4.97816 18.209 4.92402 17.9445 4.92419 17.6774V4.62366H15.5283Z" fill="#A78BFA"/>
<path d="M5.00588 6.20044C4.9073 6.20044 4.81276 6.23835 4.74301 6.30586C4.67327 6.37336 4.63403 6.46492 4.63391 6.56044V8.40388C4.63403 8.4994 4.67327 8.59096 4.74301 8.65847C4.81276 8.72597 4.9073 8.76388 5.00588 8.76388H6.90831C7.00685 8.76388 7.10134 8.72595 7.17102 8.65844C7.24069 8.59093 7.27983 8.49936 7.27983 8.40388V6.59227C7.27983 6.54078 7.26936 6.48979 7.24901 6.44222C7.22866 6.39466 7.19884 6.35144 7.16124 6.31505C7.12364 6.27866 7.07902 6.24981 7.0299 6.23014C6.98079 6.21048 6.92816 6.20038 6.87502 6.20044H5.00588ZM5.00588 11.3247C4.90722 11.3247 4.81261 11.3627 4.74286 11.4303C4.6731 11.4979 4.63391 11.5896 4.63391 11.6852V13.5286C4.63403 13.6241 4.67327 13.7157 4.74301 13.7832C4.81276 13.8507 4.9073 13.8886 5.00588 13.8886H6.90831C7.00685 13.8886 7.10134 13.8507 7.17102 13.7832C7.24069 13.7157 7.27983 13.6241 7.27983 13.5286V11.717C7.27983 11.613 7.23718 11.5132 7.16127 11.4396C7.08535 11.3661 6.98239 11.3247 6.87502 11.3247H5.00588ZM5.00588 16.3751C4.95705 16.375 4.90869 16.3843 4.86356 16.4023C4.81844 16.4204 4.77743 16.4469 4.74288 16.4804C4.70834 16.5138 4.68093 16.5535 4.66223 16.5972C4.64354 16.6409 4.63391 16.6878 4.63391 16.7351V18.5807C4.63403 18.6762 4.67327 18.7677 4.74301 18.8352C4.81276 18.9027 4.9073 18.9407 5.00588 18.9407H6.90831C7.00685 18.9407 7.10134 18.9027 7.17102 18.8352C7.24069 18.7677 7.27983 18.6761 7.27983 18.5807V16.7669C7.27983 16.7154 7.26936 16.6644 7.24901 16.6168C7.22866 16.5693 7.19884 16.5261 7.16124 16.4897C7.12364 16.4533 7.07902 16.4244 7.0299 16.4048C6.98079 16.3851 6.92816 16.375 6.87502 16.3751H5.00588Z" fill="#6D28D9"/>
<path d="M13.9712 7.79306H11.3466C11.2583 7.79306 11.1736 7.75907 11.1112 7.69858C11.0487 7.63808 11.0137 7.55603 11.0137 7.47048C11.0137 7.38493 11.0487 7.30288 11.1112 7.24238C11.1736 7.18188 11.2583 7.1479 11.3466 7.1479H13.9712C14.0595 7.1479 14.1442 7.18188 14.2066 7.24238C14.269 7.30288 14.3041 7.38493 14.3041 7.47048C14.3041 7.55603 14.269 7.63808 14.2066 7.69858C14.1442 7.75907 14.0595 7.79306 13.9712 7.79306ZM10.0025 7.79306H8.65315C8.56486 7.79306 8.48019 7.75907 8.41775 7.69858C8.35532 7.63808 8.32025 7.55603 8.32025 7.47048C8.32025 7.38493 8.35532 7.30288 8.41775 7.24238C8.48019 7.18188 8.56486 7.1479 8.65315 7.1479H10.0025C10.0908 7.1479 10.1755 7.18188 10.2379 7.24238C10.3004 7.30288 10.3354 7.38493 10.3354 7.47048C10.3354 7.55603 10.3004 7.63808 10.2379 7.69858C10.1755 7.75907 10.0908 7.79306 10.0025 7.79306ZM13.9712 12.7879H12.6706C12.5824 12.7879 12.4977 12.7539 12.4352 12.6934C12.3728 12.6329 12.3377 12.5509 12.3377 12.4653C12.3377 12.3798 12.3728 12.2977 12.4352 12.2372C12.4977 12.1767 12.5824 12.1427 12.6706 12.1427H13.9712C14.0595 12.1427 14.1442 12.1767 14.2066 12.2372C14.269 12.2977 14.3041 12.3798 14.3041 12.4653C14.3041 12.5509 14.269 12.6329 14.2066 12.6934C14.1442 12.7539 14.0595 12.7879 13.9712 12.7879ZM11.3155 12.7879H8.65227C8.56397 12.7879 8.4793 12.7539 8.41687 12.6934C8.35444 12.6329 8.31936 12.5509 8.31936 12.4653C8.31936 12.3798 8.35444 12.2977 8.41687 12.2372C8.4793 12.1767 8.56397 12.1427 8.65227 12.1427H11.3155C11.4038 12.1427 11.4885 12.1767 11.5509 12.2372C11.6133 12.2977 11.6484 12.3798 11.6484 12.4653C11.6484 12.5509 11.6133 12.6329 11.5509 12.6934C11.4885 12.7539 11.4038 12.7879 11.3155 12.7879ZM6.18522 8.04682H6.17235C6.12828 8.04509 6.08501 8.03493 6.04501 8.01692C6.00502 7.99891 5.96909 7.9734 5.93932 7.94188L5.52696 7.50317C5.49752 7.4719 5.47473 7.43533 5.45988 7.39553C5.44503 7.35573 5.43842 7.31349 5.44042 7.27121C5.44242 7.22894 5.45299 7.18746 5.47153 7.14914C5.49008 7.11082 5.51622 7.07642 5.54849 7.0479C5.58075 7.01937 5.6185 6.99729 5.65957 6.9829C5.70064 6.96851 5.74424 6.9621 5.78787 6.96404C5.8315 6.96598 5.8743 6.97622 5.91385 6.99419C5.95339 7.01216 5.98889 7.0375 6.01833 7.06876L6.20387 7.26532L7.94562 5.68295C8.00996 5.62449 8.09562 5.59319 8.18378 5.59593C8.27193 5.59867 8.35535 5.63524 8.41568 5.69758C8.47601 5.75992 8.50832 5.84293 8.50549 5.92835C8.50266 6.01377 8.46493 6.0946 8.40059 6.15306L6.41293 7.95951C6.35131 8.0157 6.26984 8.04694 6.18522 8.04682ZM6.18522 13.1711H6.17235C6.12828 13.1694 6.08501 13.1592 6.04501 13.1412C6.00502 13.1232 5.96909 13.0977 5.93932 13.0662L5.52696 12.6275C5.49752 12.5962 5.47473 12.5596 5.45988 12.5198C5.44503 12.48 5.43842 12.4378 5.44042 12.3955C5.44242 12.3532 5.45299 12.3118 5.47153 12.2734C5.49008 12.2351 5.51622 12.2007 5.54849 12.1722C5.58075 12.1437 5.6185 12.1216 5.65957 12.1072C5.70064 12.0928 5.74424 12.0864 5.78787 12.0883C5.8315 12.0903 5.8743 12.1005 5.91385 12.1185C5.95339 12.1365 5.98889 12.1618 6.01833 12.1931L6.20387 12.3896L7.94562 10.8073C8.00996 10.7488 8.09562 10.7175 8.18378 10.7202C8.27193 10.723 8.35535 10.7595 8.41568 10.8219C8.47601 10.8842 8.50832 10.9672 8.50549 11.0526C8.50266 11.1381 8.46493 11.2189 8.40059 11.2774L6.41293 13.0838C6.35133 13.14 6.26985 13.1713 6.18522 13.1711ZM6.18522 18.221H6.17235C6.12828 18.2193 6.08501 18.2091 6.04501 18.1911C6.00502 18.1731 5.96909 18.1476 5.93932 18.1161L5.52563 17.6774C5.49446 17.6464 5.47003 17.6097 5.45381 17.5694C5.43758 17.5291 5.42988 17.486 5.43117 17.4428C5.43246 17.3996 5.44271 17.357 5.4613 17.3177C5.4799 17.2784 5.50647 17.2431 5.53944 17.2139C5.5724 17.1848 5.61108 17.1623 5.65317 17.1479C5.69527 17.1335 5.73992 17.1275 5.78447 17.1301C5.82903 17.1328 5.87257 17.1441 5.91252 17.1634C5.95246 17.1828 5.98799 17.2096 6.017 17.2425L6.20253 17.4391L7.94429 15.8563C8.00925 15.8012 8.09379 15.7726 8.18004 15.7768C8.26629 15.7809 8.34751 15.8173 8.40655 15.8784C8.46559 15.9395 8.49784 16.0204 8.49648 16.104C8.49512 16.1877 8.46026 16.2676 8.39926 16.3268L6.4116 18.1333C6.3504 18.1894 6.26945 18.2207 6.18522 18.221ZM14.0582 17.9694H11.434C11.3457 17.9694 11.261 17.9354 11.1986 17.8749C11.1362 17.8144 11.1011 17.7324 11.1011 17.6468C11.1011 17.5613 11.1362 17.4792 11.1986 17.4187C11.261 17.3582 11.3457 17.3242 11.434 17.3242H14.0582C14.1465 17.3242 14.2312 17.3582 14.2936 17.4187C14.356 17.4792 14.3911 17.5613 14.3911 17.6468C14.3911 17.7324 14.356 17.8144 14.2936 17.8749C14.2312 17.9354 14.1465 17.9694 14.0582 17.9694ZM10.0882 17.9694H8.74015C8.65186 17.9694 8.56719 17.9354 8.50475 17.8749C8.44232 17.8144 8.40725 17.7324 8.40725 17.6468C8.40725 17.5613 8.44232 17.4792 8.50475 17.4187C8.56719 17.3582 8.65186 17.3242 8.74015 17.3242H10.0882C10.1765 17.3242 10.2612 17.3582 10.3236 17.4187C10.386 17.4792 10.4211 17.5613 10.4211 17.6468C10.4211 17.7324 10.386 17.8144 10.3236 17.8749C10.2612 17.9354 10.1765 17.9694 10.0882 17.9694Z" fill="#EDE9FE"/>
<path d="M22 10.8688C22 10.9544 21.965 11.0364 21.9025 11.0969C21.8401 11.1574 21.7554 11.1914 21.6671 11.1914C21.5788 11.1914 21.4942 11.1574 21.4317 11.0969C21.3693 11.0364 21.3342 10.9544 21.3342 10.8688V7.91828C21.312 7.84516 21.2233 7.67312 20.8326 7.67312H20.498V7.08387C20.4987 7.06513 20.4972 7.04637 20.4935 7.02796H20.8331C21.0982 6.99734 21.3654 7.06502 21.5811 7.21739C21.7968 7.36977 21.945 7.59557 21.996 7.84946L22 10.8688ZM20.5219 18.6882L19.5143 22L18.5023 18.6882H20.5219Z" fill="#6D28D9"/>
<path d="M18.5023 10.8688H20.5219V18.6882H18.5023V10.8688Z" fill="#C4B5FD"/>
<path d="M20.5223 7.08384V10.8688H18.5027V7.08384C18.5027 6.82433 18.6091 6.57544 18.7985 6.39194C18.9878 6.20844 19.2447 6.10535 19.5125 6.10535C19.7803 6.10535 20.0372 6.20844 20.2265 6.39194C20.4159 6.57544 20.5223 6.82433 20.5223 7.08384Z" fill="#6D28D9"/>
<path d="M20.5219 18.6882L19.5143 22V18.6882H20.5219Z" fill="#7C3AED"/>
<path d="M19.5143 10.8688H20.5219V18.6882H19.5143V10.8688Z" fill="#A78BFA"/>
<path d="M20.5224 7.08389V10.8688H19.5148V6.10754C19.7718 6.1074 20.0191 6.20277 20.2057 6.374C20.3923 6.54523 20.5041 6.77929 20.5179 7.02797C20.5216 7.04639 20.5231 7.06515 20.5224 7.08389Z" fill="#7C3AED"/>
</svg>
